<svg id="Capa_1" data-name="Capa 1" xmlns="http://www.w3.org/2000/svg" viewBox="0 0 94.3 90.38"><defs><style>.cls-1,.cls-2{fill:#1d1d1b;}.cls-1{stroke:#1d1d1b;stroke-miterlimit:10;}</style></defs><path class="cls-1" d="M76.09,37c0,3.73-.07,7.47,0,11.21a23.69,23.69,0,0,1-5,15.15A46.5,46.5,0,0,1,57.19,75.76a58.47,58.47,0,0,1-8.29,4,8.91,8.91,0,0,1-1.5.53,3,3,0,0,1-1.47,0C37.7,77.33,30.4,73,24.56,66.34a30.57,30.57,0,0,1-5.8-8.94,22.15,22.15,0,0,1-1.55-8.16q0-13.07,0-26.11a2.28,2.28,0,0,1,2.66-2.52,25.48,25.48,0,0,0,10.75-1.82,54.18,54.18,0,0,0,14.48-8.3,2.3,2.3,0,0,1,3.12,0A53.69,53.69,0,0,0,63.33,19a26.37,26.37,0,0,0,8.74,1.63c.49,0,1,0,1.47-.06A2.27,2.27,0,0,1,76.09,23ZM19.5,23c0,.08,0,.22,0,.35q0,13,0,26a19.47,19.47,0,0,0,1.7,8,29.13,29.13,0,0,0,4.9,7.32A48.12,48.12,0,0,0,46.43,78.06a.7.7,0,0,0,.43,0,14.77,14.77,0,0,0,1.45-.53c2-.91,4.06-1.75,6-2.78A43.89,43.89,0,0,0,69.35,62a21.92,21.92,0,0,0,4.49-13.67c-.1-8.3,0-16.6,0-24.91v-.51l-.18,0a27.29,27.29,0,0,1-11-1.68A55.37,55.37,0,0,1,47,12.42a.45.45,0,0,0-.67,0A58.22,58.22,0,0,1,34,19.87a33.51,33.51,0,0,1-10.13,2.9C22.44,22.91,21,22.9,19.5,23Z"/><path class="cls-2" d="M40.47,49l3.73-3.76L59.14,30.3a2.24,2.24,0,0,1,3.26,0c1.05,1,2.08,2.06,3.11,3.11a2.23,2.23,0,0,1,0,3.32c-2.87,2.89-5.76,5.77-8.64,8.65L42.36,59.9a2.27,2.27,0,0,1-3.42.08q-5.53-5.16-11-10.33a2.26,2.26,0,0,1-.12-3.45l2.88-3.08A2.25,2.25,0,0,1,34.05,43c2,1.88,4.05,3.78,6.08,5.67ZM60.71,31.84,40.47,52.1l-8.06-7.53-3.09,3.31,11.2,10.48L63.88,35Z"/></svg>