<svg id="Capa_1" data-name="Capa 1" xmlns="http://www.w3.org/2000/svg" viewBox="0 0 102.98 93.62"><defs><style>.cls-1{fill:#1d1d1b;}.cls-1,.cls-2{stroke:#1d1d1b;stroke-miterlimit:10;stroke-width:2px;}.cls-2{fill:none;}</style></defs><path class="cls-1" d="M70.24,11.15a4.79,4.79,0,0,1,1.42,0,2.82,2.82,0,0,1,1.29.87c.37.48,0,1-.33,1.42-2.38,2.76-4.74,5.54-7.13,8.28a1.28,1.28,0,0,0-.26,1.54c.72,1.76,1.33,3.57,2,5.33a1.38,1.38,0,0,0,.78.72c1.79.48,3.59.87,5.38,1.34a.85.85,0,0,0,1-.33q3.69-4.29,7.42-8.56c.12-.14.24-.28.37-.41a1.19,1.19,0,0,1,2.16.57,16.23,16.23,0,0,1-3.67,15.29,15.2,15.2,0,0,1-12,5.27,6.63,6.63,0,0,1-1.89-.17c-1.9-.57-3.19.4-4.38,1.65-.91,1-1.77,2-2.64,2.95Q49.38,58.83,39,70.74c-2.15,2.47-4.32,4.93-6.36,7.49A7.42,7.42,0,0,1,22.5,79.5a7.5,7.5,0,0,1-1.87-10.28,15.51,15.51,0,0,1,2-2.15L48.76,41.19c1.55-1.54,3.1-3.1,4.67-4.63a5.07,5.07,0,0,0,1.51-3.14,2.63,2.63,0,0,0-.18-1A15.53,15.53,0,0,1,58,16.6,15.89,15.89,0,0,1,70.24,11.15Zm1.17,1.54-.09-.24c-.81,0-1.62.05-2.43.12a14.62,14.62,0,0,0-12.8,19.2A4.3,4.3,0,0,1,56,35.22a10.48,10.48,0,0,1-1.79,2.57Q40,51.86,25.86,65.87c-1.3,1.28-2.69,2.48-3.87,3.86-2,2.37-1.52,6.22,1,8.37a5.82,5.82,0,0,0,8.25-.54c2.87-3.32,5.69-6.67,8.58-10q8.84-10.12,17.71-20.2c1.36-1.54,2.72-3.1,4.13-4.6a5.3,5.3,0,0,1,5.1-1.86,13.19,13.19,0,0,0,6.65-.49A14.78,14.78,0,0,0,83.53,26.57c0-1.31-.16-2.63-.24-3.95l-.24,0c-.17.19-.35.38-.52.58q-3.68,4.2-7.34,8.42a1.36,1.36,0,0,1-1.52.52c-2.1-.53-4.21-1-6.3-1.54a1.82,1.82,0,0,1-1.13-.93c-.9-2.2-1.69-4.44-2.54-6.65A1.53,1.53,0,0,1,64,21.26c.77-.87,1.53-1.75,2.28-2.63Z"/><circle class="cls-2" cx="27.66" cy="72.6" r="2.62"/></svg>