<svg id="Capa_1" data-name="Capa 1" xmlns="http://www.w3.org/2000/svg" viewBox="0 0 76.6 96.17"><defs><style>.cls-1{fill:#1d1d1b;}.cls-2{fill:none;stroke:#1d1d1b;stroke-miterlimit:10;stroke-width:3.3px;}</style></defs><path class="cls-1" d="M42.14,50.73H44.7a8.64,8.64,0,0,1,1.24.1,1.11,1.11,0,0,1,.77,1.88c-.67.94-1.39,1.84-2.09,2.75l-8,10.41a2.69,2.69,0,0,1-.68.77,1.6,1.6,0,0,1-1.13.19,1.27,1.27,0,0,1-.53-.92,3.62,3.62,0,0,1,.24-1.28c.86-3,1.74-6,2.61-9,.05-.18.07-.36.12-.64-1.21,0-2.37,0-3.54,0-.56,0-1.07,0-1.33-.62a1.52,1.52,0,0,1,.28-1.67l8.52-11c.46-.6.92-1.21,1.39-1.81s.7-.92,1.36-.61.66.9.53,1.48c-.36,1.62-.75,3.23-1.13,4.84S42.55,48.94,42.14,50.73ZM37.55,61.25l.14.07,6.6-8.59c-.57,0-1,0-1.34,0s-.79,0-1.18-.08c-1.09-.1-1.64-.68-1.53-1.76a20.42,20.42,0,0,1,.47-2.43c.29-1.3.6-2.6.9-3.9l-.14-.06-6.56,8.39c.1.08.14.12.18.12l2.76,0c1.4,0,1.8.56,1.44,1.94-.3,1.11-.63,2.21-.94,3.31S37.81,60.27,37.55,61.25Z"/><rect class="cls-2" x="22.97" y="22.15" width="32.2" height="60.15" rx="1.47"/><path class="cls-2" d="M33.54,13.78H45a1.48,1.48,0,0,1,1.48,1.48v6.92a0,0,0,0,1,0,0H32.06a0,0,0,0,1,0,0V15.27A1.48,1.48,0,0,1,33.54,13.78Z"/></svg>