<svg id="Capa_1" data-name="Capa 1" xmlns="http://www.w3.org/2000/svg" viewBox="0 0 108 36.26"><defs><style>.cls-1{fill:#fff;}</style></defs><path class="cls-1" d="M74.13,27.24a2.87,2.87,0,0,1-1.82-2.06L70,27.24H64.75A2.53,2.53,0,0,1,63,25.12l-2.19,2.12H56.18l-2-6.37-2.44,6.36H47.35l.84-2.13c-1.78,1.47-2.33,2-2.49,2.14H42a2.74,2.74,0,0,1-1.52-2.16c-1.83,1.5-2.39,2-2.57,2.16H34.59A3.4,3.4,0,0,1,33,25.16c-1.83,1.34-2.89,2.08-2.89,2.08h-6l3.54-9.08H24.54l-3.41,9.08H16.74l4-11.21H17.89L13.61,27.24H9.21l5-13.33H6.6V10.06H20l-.76,2.26h7.27l-.82,2.32H33l-3.36,9.22H33.1l2.67-6.63s1-2.59,3.43-2.59h9.26l-3.29,9.28H48.6l5.27-13.86h4.18l-3.22,9.15,4.8-4.58h5l-6,5.91L59.49,24l3.71,0,3.69-9.39h4.18l-3.36,9.36h4.8l2.39-6.3H72.09l1.1-3.05h2.67l1.85-4.51H82l-1.65,4.38h2.54l-1,3.12H79.15l-2.26,6.3h4.8l2.26-6s1-3.11,3.77-3.18h9l-3.35,9.22H100v3.38H91.22a2.86,2.86,0,0,1-2.41-2.12l-2.12,2.12h-3a2.62,2.62,0,0,1-2.2-2.12l-2.19,2.12ZM88.86,24l2.32-5.83h-3L85.9,24ZM40.62,24,43,18.16H40L37.67,24Z"/><path class="cls-1" d="M67.23,13.49,68.46,10h4.18l-1.23,3.45Zm27.88-5.3h-.67V7.55h.73c.14,0,.38,0,.38.31S95.33,8.19,95.11,8.19Zm.72.78V8.64a.33.33,0,0,0-.26-.35.46.46,0,0,0,.29-.45c0-.4-.35-.51-.71-.51h-1V9.21h.29v-.8h.7c.36,0,.39.17.39.33a3,3,0,0,0,0,.47H96v0a.18.18,0,0,1-.12-.2"/><path class="cls-1" d="M95,9.84a1.57,1.57,0,0,1-1.57-1.57,1.57,1.57,0,0,1,.46-1.12A1.59,1.59,0,0,1,95,6.69a1.57,1.57,0,0,1,1.58,1.58A1.58,1.58,0,0,1,95,9.84ZM96.22,7A1.7,1.7,0,0,0,95,6.52a1.75,1.75,0,0,0-1.75,1.74A1.76,1.76,0,0,0,95,10a1.75,1.75,0,0,0,1.24-3"/><path d="M16.77,27.2,20.8,16H19.51c-.43,0-.85,0-1.27,0a.45.45,0,0,0-.5.34c-1,2.8-2.12,5.58-3.18,8.37-.29.76-.58,1.51-.88,2.26,0,.11-.19.25-.29.25-1.36,0-2.73,0-4.15,0l5-13.32H6.61V12.5c0-.7,0-1.41,0-2.11,0-.26.09-.37.34-.35H19.62l.36,0-.73,2.22H26.5l-.8,2.32H33l-3.36,9.25c1.15,0,2.23,0,3.3,0,.11,0,.26-.23.32-.38.84-2.05,1.64-4.12,2.5-6.16a4,4,0,0,1,2.95-2.63,3.52,3.52,0,0,1,.56,0H48l.43,0c-1.09,3.1-2.17,6.15-3.28,9.29h1.15c.65,0,1.3,0,1.95,0,.29,0,.41-.1.51-.37q2-5.29,4-10.6c.33-.86.65-1.74,1-2.6a.54.54,0,0,1,.37-.31c1.2,0,2.41,0,3.62,0l.24,0-3.15,9,.08,0,1.37-1.29,3.12-3a.76.76,0,0,1,.43-.21c1.5,0,3,0,4.5,0l.18,0-.33.35c-1.77,1.73-3.53,3.46-5.3,5.17a.69.69,0,0,0-.22.77c.25.89.49,1.79.7,2.69a.4.4,0,0,0,.46.36c1,0,2.05,0,3.07,0,.28,0,.36-.14.44-.35q1.73-4.38,3.44-8.74c.08-.18.13-.33.38-.33,1.22,0,2.44,0,3.66,0l.21,0-3.33,9.3a3.88,3.88,0,0,0,.42,0h4.06c.22,0,.37,0,.46-.27.72-1.94,1.46-3.87,2.19-5.81a1.87,1.87,0,0,0,.07-.28H72.17c.36-1,.69-1.93,1-2.86,0-.08.22-.15.34-.15.68,0,1.36,0,2,0a.41.41,0,0,0,.46-.31c.53-1.31,1.06-2.61,1.61-3.9,0-.13.22-.3.34-.3,1.24,0,2.49,0,3.74,0a2.4,2.4,0,0,1,.29,0l-1.62,4.32H82.9a1.65,1.65,0,0,1-.05.33c-.27.82-.55,1.63-.8,2.46a.36.36,0,0,1-.42.31c-.7,0-1.41,0-2.11,0a.39.39,0,0,0-.44.3c-.67,1.9-1.36,3.79-2,5.69,0,.1,0,.2-.07.33l.33,0c1.38,0,2.76,0,4.14,0,.3,0,.38-.15.46-.37.72-1.94,1.44-3.88,2.18-5.82a4.45,4.45,0,0,1,2.53-2.8,3.29,3.29,0,0,1,1.16-.24c2.92,0,5.84,0,8.76,0l.26,0c-1.1,3.06-2.2,6.09-3.33,9.2H100V27.2H91.59A2.71,2.71,0,0,1,89,25.38L88.81,25c-.56.6-1.09,1.14-1.59,1.7a1.22,1.22,0,0,1-1.1.47c-.66,0-1.33,0-2,0a2.48,2.48,0,0,1-2.52-1.85l-.09-.23a13.12,13.12,0,0,0-1.25,1.21,2.31,2.31,0,0,1-2.17.89c-1.11-.07-2.23,0-3.35,0a2.46,2.46,0,0,1-2.27-1.61c0-.11-.07-.22-.13-.39l-.28.21c-.56.51-1.11,1-1.69,1.52a1.13,1.13,0,0,1-.65.26c-1.46,0-2.93,0-4.39,0a2.06,2.06,0,0,1-2.09-1.39c-.08-.2-.15-.42-.25-.69l-.82.78a5.52,5.52,0,0,1-1.35,1.22,4.87,4.87,0,0,1-1.76.08c-.81,0-1.62,0-2.43,0a.47.47,0,0,1-.55-.4C55.54,25,55,23.16,54.41,21.33c0-.12-.09-.24-.16-.45-.08.17-.14.26-.18.36l-2.14,5.61c-.07.19-.12.36-.4.36-1.31,0-2.62,0-3.94,0a.85.85,0,0,1-.15,0l.73-1.93-.06-.05c-.1.08-.22.15-.32.24-.61.52-1.22,1.06-1.85,1.58a.87.87,0,0,1-.52.19c-.94,0-1.89,0-2.83,0a1.8,1.8,0,0,1-1.79-1.12,9.9,9.9,0,0,1-.4-1c-.64.54-1.3,1-1.9,1.59a1.69,1.69,0,0,1-1.41.53c-.71-.05-1.44,0-2.15,0a1.3,1.3,0,0,1-.81-.31c-.44-.5-.8-1.07-1.23-1.66a2.59,2.59,0,0,0-.29.19c-.75.54-1.5,1.09-2.26,1.62a.89.89,0,0,1-.43.17h-5.5l-.21,0,3.51-9H26.51c-.53,0-1.06,0-1.59,0a.46.46,0,0,0-.53.35c-1,2.75-2.05,5.49-3.07,8.23a.63.63,0,0,1-.72.53C19.35,27.18,18.1,27.2,16.77,27.2Zm74.49-9.08c-.94,0-1.8,0-2.66,0a.42.42,0,0,0-.45.33c-.67,1.7-1.36,3.4-2,5.1,0,.13-.08.26-.14.46.92,0,1.76,0,2.61,0a.45.45,0,0,0,.49-.35c.4-1,.83-2.07,1.24-3.1ZM43,18.12c-.92,0-1.76,0-2.59,0a.5.5,0,0,0-.55.38c-.66,1.69-1.34,3.38-2,5.06,0,.13-.08.26-.14.45,1,0,1.87,0,2.77,0,.1,0,.25-.17.3-.29.43-1,.85-2.09,1.26-3.14C42.33,19.78,42.64,19,43,18.12Z"/><path d="M72.66,10c-.39,1.11-.76,2.16-1.15,3.2a.37.37,0,0,1-.28.2H67.34c0-.13,0-.23.07-.33.33-.92.66-1.84,1-2.76,0-.13.21-.31.32-.31C70,10,71.31,10,72.66,10Z"/><path d="M95,6.5a1.73,1.73,0,1,1,0,3.45A1.73,1.73,0,0,1,95,6.5Zm0,.14a1.6,1.6,0,0,0-1.64,1.54A1.63,1.63,0,0,0,95,9.82a1.6,1.6,0,0,0,1.64-1.58A1.56,1.56,0,0,0,95.08,6.64Z"/><path d="M95.74,8.17l.18.91-.15.06a.93.93,0,0,1-.13-.29.73.73,0,0,0-1-.48c-.08.06-.08.23-.11.35s0,.27-.07.41l-.13,0V7.35a8.3,8.3,0,0,1,1.22,0C96,7.43,96,7.78,95.74,8.17ZM94.38,7.5c.13.28.16.56.31.64a.91.91,0,0,0,.65,0c.12,0,.29-.22.27-.3a.47.47,0,0,0-.31-.32A5.3,5.3,0,0,0,94.38,7.5Z"/></svg>